<mxfile host="app.diagrams.net" modified="2023-10-01T13:23:32.817Z" agent="Mozilla/5.0 (Macintosh; Intel Mac OS X 10_15_7) AppleWebKit/537.36 (KHTML, like Gecko) Chrome/116.0.0.0 Safari/537.36" etag="3rL-cYUcdTnreO9S3Nva" version="21.7.2" type="device">
  <diagram name="Page-1" id="79Q-tZ2ytMrzHXhetFt8">
    <mxGraphModel dx="1026" dy="614" grid="1" gridSize="10" guides="1" tooltips="1" connect="1" arrows="1" fold="1" page="1" pageScale="1" pageWidth="827" pageHeight="1169" math="0" shadow="0">
      <root>
        <mxCell id="0" />
        <mxCell id="1" parent="0" />
        <mxCell id="EuXQc0IGASAlVfM0OYK--1" value="" style="rounded=1;whiteSpace=wrap;html=1;" vertex="1" parent="1">
          <mxGeometry x="270" y="70" width="260" height="440" as="geometry" />
        </mxCell>
        <mxCell id="EuXQc0IGASAlVfM0OYK--2" value="https://shrifreedom.org/vedic-astrology/nakshatras/" style="text;html=1;strokeColor=none;fillColor=none;align=center;verticalAlign=middle;whiteSpace=wrap;rounded=0;" vertex="1" parent="1">
          <mxGeometry x="140" y="555" width="500" height="30" as="geometry" />
        </mxCell>
        <mxCell id="EuXQc0IGASAlVfM0OYK--3" value="" style="rounded=1;whiteSpace=wrap;html=1;" vertex="1" parent="1">
          <mxGeometry x="270" y="140" width="260" height="60" as="geometry" />
        </mxCell>
        <mxCell id="EuXQc0IGASAlVfM0OYK--4" value="Ekadasi" style="text;strokeColor=none;fillColor=none;align=left;verticalAlign=middle;spacingLeft=4;spacingRight=4;overflow=hidden;points=[[0,0.5],[1,0.5]];portConstraint=eastwest;rotatable=0;whiteSpace=wrap;html=1;fontSize=16;" vertex="1" parent="1">
          <mxGeometry x="370" y="150" width="130" height="30" as="geometry" />
        </mxCell>
        <mxCell id="EuXQc0IGASAlVfM0OYK--6" value="01 oct 5:40 AM to 02 oct 1:00 Am" style="text;html=1;strokeColor=none;fillColor=none;align=center;verticalAlign=middle;whiteSpace=wrap;rounded=0;" vertex="1" parent="1">
          <mxGeometry x="314" y="170" width="200" height="30" as="geometry" />
        </mxCell>
        <mxCell id="EuXQc0IGASAlVfM0OYK--7" value="Sunday Oct 1, 2023" style="text;html=1;strokeColor=none;fillColor=none;align=center;verticalAlign=middle;whiteSpace=wrap;rounded=0;" vertex="1" parent="1">
          <mxGeometry x="280" y="100" width="120" height="30" as="geometry" />
        </mxCell>
        <mxCell id="EuXQc0IGASAlVfM0OYK--8" value="23 * C" style="text;html=1;strokeColor=none;fillColor=none;align=center;verticalAlign=middle;whiteSpace=wrap;rounded=0;" vertex="1" parent="1">
          <mxGeometry x="430" y="100" width="60" height="30" as="geometry" />
        </mxCell>
        <mxCell id="EuXQc0IGASAlVfM0OYK--9" value="" style="verticalLabelPosition=bottom;verticalAlign=top;html=1;shape=mxgraph.basic.moon;fillColor=#f5f5f5;strokeColor=#666666;gradientColor=#b3b3b3;" vertex="1" parent="1">
          <mxGeometry x="280" y="150" width="30" height="40" as="geometry" />
        </mxCell>
      </root>
    </mxGraphModel>
  </diagram>
</mxfile>
